<?xml version="1.0" standalone="no"?>
<!DOCTYPE svg PUBLIC "-//W3C//DTD SVG 20010904//EN"
 "http://www.w3.org/TR/2001/REC-SVG-20010904/DTD/svg10.dtd">
<svg version="1.0" xmlns="http://www.w3.org/2000/svg"
 width="479.000000pt" height="479.000000pt" viewBox="0 0 479.000000 479.000000"
 preserveAspectRatio="xMidYMid meet">
<metadata>
Created by potrace 1.14, written by Peter Selinger 2001-2017
</metadata>
<g transform="translate(0.000000,479.000000) scale(0.100000,-0.100000)"
fill="#000000" stroke="none">
<path d="M4475 2906 c-38 -23 -1201 -686 -1295 -739 -42 -23 -62 -56 -31 -49
8 2 111 59 230 126 119 68 232 133 251 143 19 11 208 119 420 240 212 121 409
233 437 249 29 16 53 35 53 42 0 18 -20 14 -65 -12z"/>
<path d="M255 2891 c-5 -9 44 -41 169 -111 21 -11 116 -66 211 -120 172 -99
212 -121 283 -161 20 -12 118 -67 217 -124 474 -269 540 -306 549 -308 6 -1
11 4 11 12 0 12 -27 29 -180 116 -22 12 -137 77 -255 145 -215 123 -248 142
-317 181 -168 95 -316 179 -477 271 -103 59 -192 108 -196 108 -5 0 -11 -4
-15 -9z"/>
<path d="M4454 2734 c-159 -91 -311 -178 -339 -193 -61 -35 -969 -553 -972
-555 -5 -4 31 -66 38 -66 5 0 188 102 406 226 219 125 414 235 433 246 19 11
51 29 70 40 19 11 154 88 300 171 146 82 282 161 302 174 21 12 40 23 43 23 3
0 17 7 30 16 23 15 24 18 10 44 -8 16 -19 31 -23 34 -4 3 -138 -70 -298 -160z"/>
<path d="M20 2838 c-11 -18 -16 -36 -12 -40 8 -8 578 -335 812 -466 25 -14
124 -70 220 -125 96 -55 189 -108 205 -117 17 -9 111 -63 210 -119 99 -57 183
-103 188 -104 4 -1 16 12 28 30 l20 32 -68 39 c-62 36 -295 169 -403 230 -25
14 -171 97 -325 185 -154 88 -296 169 -315 180 -58 32 -314 178 -330 188 -19
11 -101 58 -163 92 l-47 27 -20 -32z"/>
<path d="M4729 2714 c-24 -14 -66 -38 -94 -53 -27 -15 -135 -77 -240 -136
-104 -59 -203 -116 -220 -125 -430 -244 -765 -435 -784 -447 -16 -10 -20 -18
-13 -25 12 -12 14 -11 457 242 138 79 279 160 315 180 408 229 606 344 624
360 30 29 3 31 -45 4z"/>
<path d="M7 2695 c-4 -9 2 -20 16 -29 23 -14 580 -332 657 -374 25 -14 108
-61 185 -105 520 -297 577 -328 582 -323 18 17 -27 46 -377 242 -30 17 -149
85 -265 151 -116 65 -331 188 -480 273 -148 84 -280 159 -291 167 -19 12 -22
12 -27 -2z"/>
</g>
</svg>
