<svg width="351" height="280" viewBox="0 0 351 280" fill="none" xmlns="http://www.w3.org/2000/svg">
<path d="M263.25 0H87.75C39.3646 0 0 39.2525 0 87.5V192.5C0 240.747 39.3646 280 87.75 280H263.25C311.635 280 351 240.747 351 192.5V87.5C351 39.2525 311.635 0 263.25 0ZM87.75 35H263.25C283.924 35 301.667 47.0396 310.284 64.3646L204.703 134.54C186.96 146.335 164.04 146.335 146.297 134.54L40.7161 64.3646C49.3332 47.0396 67.0761 35 87.75 35ZM263.25 245H87.75C58.7223 245 35.1 221.445 35.1 192.5V102.691L126.817 163.661C141.611 173.496 158.547 178.414 175.5 178.414C192.436 178.414 209.389 173.496 224.166 163.661L315.9 102.691V192.5C315.9 221.445 292.278 245 263.25 245Z" fill="#757185"/>
</svg>
