<svg width="32" height="32" viewBox="0 0 32 32" fill="none" xmlns="http://www.w3.org/2000/svg">
<path d="M26.4279 10.0092L19.7612 4.64726C17.5813 2.89462 14.4186 2.89596 12.2373 4.64726L5.5706 10.0092C4.14926 11.1523 3.33325 12.8542 3.33325 14.6789V22.6711C3.33325 25.9776 6.02525 28.6666 9.33325 28.6666H12.6666V22.6711C12.6666 20.8358 14.1626 19.3419 15.9999 19.3419C17.8373 19.3419 19.3333 20.8358 19.3333 22.6711V28.6666H22.6666C25.9746 28.6666 28.6666 25.9776 28.6666 22.6711V14.6789C28.6666 12.8542 27.8506 11.1523 26.4279 10.0092ZM27.3333 22.6711C27.3333 25.2413 25.2399 27.3328 22.6666 27.3328H20.6666V22.6711C20.6666 20.0995 18.5733 18.0081 15.9999 18.0081C13.4266 18.0081 11.3333 20.0995 11.3333 22.6711V27.3328H9.33325C6.75992 27.3328 4.66659 25.2413 4.66659 22.6711V14.6789C4.66659 13.261 5.30126 11.9379 6.4066 11.0482L13.0733 5.68633C14.7693 4.32317 17.2319 4.3245 18.9266 5.68633L25.5933 11.0482C26.6999 11.9379 27.3333 13.261 27.3333 14.6789V22.6711Z" fill="white"/>
</svg>
