<svg width="32" height="32" viewBox="0 0 32 32" fill="none" xmlns="http://www.w3.org/2000/svg">
<path d="M9.99992 13.3333C9.99992 12.9653 10.2986 12.6667 10.6666 12.6667H21.3333C21.7013 12.6667 21.9999 12.9653 21.9999 13.3333C21.9999 13.7013 21.7013 14 21.3333 14H10.6666C10.2986 14 9.99992 13.7013 9.99992 13.3333ZM11.9999 9.99999H19.9999C20.3679 9.99999 20.6666 9.70132 20.6666 9.33332C20.6666 8.96532 20.3679 8.66666 19.9999 8.66666H11.9999C11.6319 8.66666 11.3333 8.96532 11.3333 9.33332C11.3333 9.70132 11.6319 9.99999 11.9999 9.99999ZM28.6666 17.9827V21.3333C28.6666 24.6413 25.9746 27.3333 22.6666 27.3333H9.33325C6.02525 27.3333 3.33325 24.6413 3.33325 21.3333V17.9827C3.33325 17.48 3.41458 16.9827 3.57324 16.5067L6.15324 8.76936C6.97057 6.31603 9.25855 4.66666 11.8452 4.66666H20.1572C22.7439 4.66666 25.0306 6.31469 25.8493 8.76936L28.4293 16.5067C28.5853 16.9827 28.6666 17.48 28.6666 17.9827ZM4.92391 16.6667H11.9999C12.3679 16.6667 12.6666 16.9653 12.6666 17.3333C12.6666 19.1707 14.1626 20.6667 15.9999 20.6667C17.8373 20.6667 19.3333 19.1707 19.3333 17.3333C19.3333 16.9653 19.6319 16.6667 19.9999 16.6667H27.0759L24.5839 9.19066C23.9466 7.28133 22.1679 5.99999 20.1572 5.99999H11.8452C9.83321 5.99999 8.05462 7.28133 7.41862 9.19066L4.92391 16.6667ZM27.3333 21.3333V18H20.6186C20.2946 20.2587 18.3466 22 15.9999 22C13.6533 22 11.7053 20.2587 11.3813 18H4.66659V21.3333C4.66659 23.9067 6.75992 26 9.33325 26H22.6666C25.2399 26 27.3333 23.9053 27.3333 21.3333Z" fill="white"/>
</svg>
